<svg width="236" height="182" viewBox="0 0 236 182" fill="none" xmlns="http://www.w3.org/2000/svg">
<rect width="236" height="182" fill="#E5E5E5"/>
<g clip-path="url(#clip0_0_1)">
<rect width="834" height="1194" transform="translate(-449 -566)" fill="white"/>
<path d="M148.154 54.8646C147.738 54.8646 147.321 54.7604 146.957 54.5521C136.957 49.3958 128.311 47.2083 117.946 47.2083C107.634 47.2083 97.8419 49.6562 88.9357 54.5521C87.6857 55.2292 86.1232 54.7604 85.394 53.5104C85.0692 52.9013 84.9963 52.189 85.1911 51.5267C85.3859 50.8644 85.8328 50.305 86.4357 49.9687C96.1232 44.7083 106.748 42 117.946 42C129.04 42 138.727 44.4479 149.352 49.9167C150.654 50.5937 151.123 52.1562 150.446 53.4062C150.24 53.8404 149.916 54.2076 149.51 54.4656C149.105 54.7236 148.635 54.8619 148.154 54.8646ZM73.6232 82.2083C73.1431 82.2128 72.6711 82.0842 72.2597 81.8368C71.8482 81.5894 71.5133 81.2328 71.2922 80.8067C71.071 80.3805 70.9722 79.9015 71.0067 79.4226C71.0413 78.9437 71.2078 78.4838 71.4878 78.0938C76.644 70.8021 83.2065 65.0729 91.019 61.0625C107.373 52.625 128.311 52.5729 144.717 61.0104C152.529 65.0208 159.092 70.6979 164.248 77.9375C164.448 78.2174 164.59 78.5341 164.667 78.8693C164.744 79.2046 164.754 79.5517 164.695 79.8907C164.637 80.2296 164.513 80.5537 164.329 80.8443C164.145 81.1348 163.905 81.386 163.623 81.5833C162.425 82.4167 160.811 82.1562 159.977 80.9583C155.416 74.502 149.358 69.2477 142.321 65.6458C127.373 57.9896 108.259 57.9896 93.3628 65.6979C86.2794 69.3438 80.3419 74.5521 75.6544 81.1146C75.2378 81.8438 74.4565 82.2083 73.6232 82.2083ZM106.175 145.073C105.834 145.077 105.495 145.01 105.181 144.875C104.867 144.741 104.585 144.542 104.352 144.292C99.8211 139.76 97.3732 136.844 93.8836 130.542C90.2899 124.135 88.4149 116.323 88.4149 107.937C88.4149 92.4687 101.644 79.8646 117.894 79.8646C134.144 79.8646 147.373 92.4687 147.373 107.937C147.373 109.396 146.227 110.542 144.769 110.542C143.311 110.542 142.165 109.396 142.165 107.937C142.165 95.3333 131.279 85.0729 117.894 85.0729C104.509 85.0729 93.6232 95.3333 93.6232 107.937C93.6232 115.437 95.2899 122.365 98.4669 127.99C101.8 133.979 104.092 136.531 108.102 140.594C109.092 141.635 109.092 143.25 108.102 144.292C107.529 144.812 106.852 145.073 106.175 145.073ZM143.519 135.438C137.321 135.438 131.852 133.875 127.373 130.802C119.613 125.542 114.977 117 114.977 107.937C114.977 106.479 116.123 105.333 117.582 105.333C119.04 105.333 120.186 106.479 120.186 107.937C120.186 115.281 123.936 122.208 130.29 126.479C133.988 128.979 138.311 130.177 143.519 130.177C144.769 130.177 146.852 130.021 148.936 129.656C150.342 129.396 151.696 130.333 151.957 131.792C152.217 133.198 151.279 134.552 149.821 134.812C146.852 135.385 144.248 135.438 143.519 135.438ZM133.05 146.167C132.842 146.167 132.582 146.115 132.373 146.062C124.092 143.771 118.675 140.698 112.998 135.125C109.401 131.573 106.548 127.339 104.607 122.67C102.667 118.002 101.677 112.993 101.696 107.937C101.696 99.5 108.884 92.625 117.738 92.625C126.592 92.625 133.779 99.5 133.779 107.937C133.779 113.51 138.623 118.042 144.613 118.042C150.602 118.042 155.446 113.51 155.446 107.937C155.446 88.3021 138.519 72.3646 117.686 72.3646C102.894 72.3646 89.3524 80.5937 83.2586 93.3542C81.2274 97.5729 80.1857 102.521 80.1857 107.937C80.1857 112 80.5503 118.406 83.6753 126.74C84.1961 128.094 83.519 129.604 82.1649 130.073C80.8107 130.594 79.3003 129.865 78.8315 128.562C76.3218 121.976 75.0334 114.986 75.0294 107.937C75.0294 101.687 76.2274 96.0104 78.5711 91.0625C85.4982 76.5312 100.863 67.1042 117.686 67.1042C141.384 67.1042 160.654 85.3854 160.654 107.885C160.654 116.323 153.467 123.198 144.613 123.198C135.759 123.198 128.571 116.323 128.571 107.885C128.571 102.312 123.727 97.7812 117.738 97.7812C111.748 97.7812 106.904 102.312 106.904 107.885C106.904 116.792 110.342 125.125 116.644 131.375C121.592 136.271 126.332 138.979 133.675 141.01C135.082 141.375 135.863 142.833 135.498 144.188C135.238 145.385 134.144 146.167 133.05 146.167Z" fill="#3D3D3D"/>
<line x1="1" y1="2" x2="1" y2="32" stroke="#7C7D80" stroke-width="2"/>
<line y1="1" x2="30" y2="1" stroke="#7C7D80" stroke-width="2"/>
<line x1="234" y1="3" x2="204" y2="3" stroke="#7C7D80" stroke-width="2"/>
<line x1="235" y1="2" x2="235" y2="32" stroke="#7C7D80" stroke-width="2"/>
<line y1="-1" x2="30" y2="-1" transform="matrix(0 -1 -1 0 0 180)" stroke="#7C7D80" stroke-opacity="0.75" stroke-width="2"/>
<line y1="-1" x2="30" y2="-1" transform="matrix(1 0 0 -1 0 180)" stroke="#7C7D80" stroke-opacity="0.75" stroke-width="2"/>
<line x1="233" y1="180" x2="233" y2="150" stroke="#7C7D80" stroke-width="2"/>
<line x1="234" y1="181" x2="204" y2="181" stroke="#7C7D80" stroke-width="2"/>
</g>
<defs>
<clipPath id="clip0_0_1">
<rect width="834" height="1194" fill="white" transform="translate(-449 -566)"/>
</clipPath>
</defs>
</svg>
